<svg width="16" height="16" viewBox="0 0 16 16" fill="none" xmlns="http://www.w3.org/2000/svg">
<path d="M9.41917 7.55998C9.67917 6.46665 8.72584 5.51331 7.63251 5.77331C7.11917 5.89998 6.69917 6.31998 6.57251 6.83331C6.31251 7.92665 7.26584 8.87998 8.35917 8.61998C8.87917 8.49331 9.29917 8.07331 9.41917 7.55998Z" fill="#171717"/>
<path d="M4.01396 11.98C3.89396 11.98 3.76729 11.9333 3.67396 11.8466C2.38063 10.6466 1.64062 8.95331 1.64062 7.19331C1.64062 3.68665 4.49396 0.833313 8.00063 0.833313C11.5073 0.833313 14.3606 3.68665 14.3606 7.19331C14.3606 8.96665 13.6473 10.6066 12.354 11.8266C12.154 12.0133 11.834 12.0066 11.6473 11.8066C11.4606 11.6066 11.4673 11.2866 11.6673 11.1C12.7606 10.0733 13.3606 8.69331 13.3606 7.19998C13.3606 4.24665 10.954 1.83998 8.00063 1.83998C5.04729 1.83998 2.64063 4.24665 2.64063 7.19998C2.64063 8.70665 3.24729 10.0933 4.35396 11.12C4.55396 11.3066 4.56729 11.6266 4.38063 11.8266C4.28063 11.9266 4.14729 11.98 4.01396 11.98Z" fill="#171717"/>
<path d="M10.6657 10.2C10.5457 10.2 10.419 10.1533 10.3257 10.0666C10.1257 9.87998 10.1124 9.55998 10.3057 9.35998C10.859 8.77331 11.1657 7.99998 11.1657 7.19998C11.1657 5.45331 9.7457 4.03998 8.0057 4.03998C6.2657 4.03998 4.8457 5.45998 4.8457 7.19998C4.8457 8.00664 5.15237 8.77331 5.7057 9.35998C5.89237 9.55998 5.8857 9.87998 5.6857 10.0666C5.4857 10.26 5.1657 10.2466 4.97904 10.0466C4.25237 9.27331 3.8457 8.25998 3.8457 7.19998C3.8457 4.90664 5.71237 3.03998 8.0057 3.03998C10.299 3.03998 12.1657 4.90664 12.1657 7.19998C12.1657 8.25998 11.7657 9.27331 11.0324 10.0466C10.9324 10.1466 10.799 10.2 10.6657 10.2Z" fill="#171717"/>
<path d="M6.86594 11.1067L5.90594 12.3C5.14594 13.2533 5.82594 14.6667 7.03927 14.6667H8.95261C10.1726 14.6667 10.8526 13.2533 10.0859 12.3067L9.12594 11.1133C8.55261 10.38 7.44594 10.38 6.86594 11.1067Z" fill="#171717"/>
</svg>
