<svg width="16" height="16" viewBox="0 0 16 16" fill="none" xmlns="http://www.w3.org/2000/svg">
<path d="M7.99999 14.6198C4.63999 14.6198 1.89999 11.8865 1.89999 8.5198V7.26647C1.89999 7.00647 2.11333 6.7998 2.36666 6.7998C2.61999 6.7998 2.83333 7.01314 2.83333 7.26647V8.5198C2.83333 11.3665 5.14666 13.6798 7.99333 13.6798C10.84 13.6798 13.1533 11.3665 13.1533 8.5198V7.26647C13.1533 7.00647 13.3667 6.7998 13.62 6.7998C13.8733 6.7998 14.0867 7.01314 14.0867 7.26647V8.5198C14.1 11.8865 11.36 14.6198 7.99999 14.6198Z" fill="#171717"/>
<path d="M8 1.3335C5.76 1.3335 3.93333 3.16016 3.93333 5.40016V8.52683C3.93333 10.7668 5.76 12.5935 8 12.5935C10.24 12.5935 12.0667 10.7668 12.0667 8.52683V5.40016C12.0667 3.16016 10.24 1.3335 8 1.3335ZM9.45333 7.06016C9.40667 7.24016 9.24 7.36016 9.06 7.36016C9.02667 7.36016 8.98667 7.3535 8.95333 7.34683C8.27333 7.16016 7.55333 7.16016 6.87333 7.34683C6.65333 7.40683 6.43333 7.28016 6.37333 7.06016C6.31333 6.84683 6.44 6.62016 6.66 6.56016C7.48 6.3335 8.34667 6.3335 9.16667 6.56016C9.38667 6.62016 9.51333 6.84016 9.45333 7.06016ZM10.02 5.2135C9.96 5.38016 9.80667 5.48016 9.64 5.48016C9.59333 5.48016 9.54667 5.4735 9.5 5.4535C8.48 5.08016 7.36 5.08016 6.34 5.4535C6.12667 5.5335 5.89333 5.42683 5.81333 5.2135C5.74 5.00683 5.84667 4.7735 6.06 4.6935C7.26 4.26016 8.58 4.26016 9.77333 4.6935C9.98667 4.7735 10.0933 5.00683 10.02 5.2135Z" fill="#171717"/>
</svg>
