<svg width="16" height="16" viewBox="0 0 16 16" fill="none" xmlns="http://www.w3.org/2000/svg">
<path d="M14.0471 3.48665C12.9738 3.37998 11.9004 3.29998 10.8204 3.23998V3.23331L10.6738 2.36665C10.5738 1.75331 10.4271 0.833313 8.8671 0.833313H7.12043C5.5671 0.833313 5.42043 1.71331 5.31376 2.35998L5.17376 3.21331C4.55376 3.25331 3.93376 3.29331 3.31376 3.35331L1.95376 3.48665C1.67376 3.51331 1.47376 3.75998 1.50043 4.03331C1.5271 4.30665 1.7671 4.50665 2.0471 4.47998L3.4071 4.34665C6.90043 3.99998 10.4204 4.13331 13.9538 4.48665C13.9738 4.48665 13.9871 4.48665 14.0071 4.48665C14.2604 4.48665 14.4804 4.29331 14.5071 4.03331C14.5271 3.75998 14.3271 3.51331 14.0471 3.48665Z" fill="#D80905"/>
<path d="M12.8192 5.42669C12.6592 5.26002 12.4392 5.16669 12.2125 5.16669H3.78585C3.55918 5.16669 3.33252 5.26002 3.17918 5.42669C3.02585 5.59335 2.93918 5.82002 2.95252 6.05335L3.36585 12.8934C3.43918 13.9067 3.53252 15.1734 5.85918 15.1734H10.1392C12.4658 15.1734 12.5592 13.9134 12.6325 12.8934L13.0458 6.06002C13.0592 5.82002 12.9725 5.59335 12.8192 5.42669ZM9.10585 11.8334H6.88585C6.61252 11.8334 6.38585 11.6067 6.38585 11.3334C6.38585 11.06 6.61252 10.8334 6.88585 10.8334H9.10585C9.37918 10.8334 9.60585 11.06 9.60585 11.3334C9.60585 11.6067 9.37918 11.8334 9.10585 11.8334ZM9.66585 9.16669H6.33252C6.05918 9.16669 5.83252 8.94002 5.83252 8.66669C5.83252 8.39335 6.05918 8.16669 6.33252 8.16669H9.66585C9.93918 8.16669 10.1658 8.39335 10.1658 8.66669C10.1658 8.94002 9.93918 9.16669 9.66585 9.16669Z" fill="#D80905"/>
</svg>
