<svg width="16" height="16" viewBox="0 0 16 16" fill="none" xmlns="http://www.w3.org/2000/svg">
<path d="M13.0073 3.89998L9.04727 1.61331C8.4006 1.23998 7.6006 1.23998 6.94727 1.61331L2.99393 3.89998C2.34727 4.27331 1.94727 4.96665 1.94727 5.71998V10.28C1.94727 11.0266 2.34727 11.72 2.99393 12.1L6.95393 14.3866C7.6006 14.76 8.4006 14.76 9.05393 14.3866L13.0139 12.1C13.6606 11.7266 14.0606 11.0333 14.0606 10.28V5.71998C14.0539 4.96665 13.6539 4.27998 13.0073 3.89998ZM9.5006 8.93331L8.80727 9.33331L8.11393 9.73331C7.22727 10.2466 6.5006 9.82665 6.5006 8.79998V7.99998V7.19998C6.5006 6.17331 7.22727 5.75331 8.11393 6.26665L8.80727 6.66665L9.5006 7.06665C10.3873 7.57998 10.3873 8.41998 9.5006 8.93331Z" fill="#171717"/>
</svg>
