<svg width="12" height="12" viewBox="0 0 12 12" fill="none" xmlns="http://www.w3.org/2000/svg">
<path d="M4.83501 6.95996C4.46501 6.95996 4.17001 7.25996 4.17001 7.62996C4.17001 7.99996 4.47001 8.29496 4.83501 8.29496C5.20501 8.29496 5.50501 7.99496 5.50501 7.62996C5.50501 7.25996 5.20501 6.95996 4.83501 6.95996Z" fill="#171717"/>
<path d="M8.095 1H3.905C2.085 1 1 2.085 1 3.905V8.09C1 9.915 2.085 11 3.905 11H8.09C9.91 11 10.995 9.915 10.995 8.095V3.905C11 2.085 9.915 1 8.095 1ZM8.56 4.9C8.56 5.205 8.43 5.475 8.21 5.635C8.07 5.735 7.9 5.79 7.72 5.79C7.615 5.79 7.51 5.77 7.4 5.735L6.255 5.355C6.25 5.355 6.24 5.35 6.235 5.345V7.625C6.235 8.395 5.605 9.025 4.835 9.025C4.065 9.025 3.435 8.395 3.435 7.625C3.435 6.855 4.065 6.225 4.835 6.225C5.08 6.225 5.305 6.295 5.505 6.4V4.315V4.01C5.505 3.705 5.635 3.435 5.855 3.275C6.08 3.115 6.375 3.075 6.665 3.175L7.81 3.555C8.24 3.7 8.565 4.15 8.565 4.6V4.9H8.56Z" fill="#171717"/>
</svg>
