<svg width="12" height="12" viewBox="0 0 12 12" fill="none" xmlns="http://www.w3.org/2000/svg">
<path d="M1.375 9.32499C1.17 9.32499 1 9.15499 1 8.94999V6.09999C0.975001 4.74499 1.48 3.46499 2.42 2.50499C3.36 1.54999 4.62 1.02499 5.975 1.02499C8.745 1.02499 11 3.27999 11 6.04999V8.89999C11 9.10499 10.83 9.27499 10.625 9.27499C10.42 9.27499 10.25 9.10499 10.25 8.89999V6.04999C10.25 3.69499 8.335 1.77499 5.975 1.77499C4.82 1.77499 3.75 2.21999 2.955 3.02999C2.155 3.84499 1.73 4.92999 1.75 6.08999V8.94499C1.75 9.15499 1.585 9.32499 1.375 9.32499Z" fill="#D80905"/>
<path d="M2.97 6.22501H2.905C1.855 6.22501 1 7.08001 1 8.13001V9.07001C1 10.12 1.855 10.975 2.905 10.975H2.97C4.02 10.975 4.875 10.12 4.875 9.07001V8.13001C4.875 7.08001 4.02 6.22501 2.97 6.22501Z" fill="#D80905"/>
<path d="M9.095 6.22501H9.03C7.98 6.22501 7.125 7.08001 7.125 8.13001V9.07001C7.125 10.12 7.98 10.975 9.03 10.975H9.095C10.145 10.975 11 10.12 11 9.07001V8.13001C11 7.08001 10.145 6.22501 9.095 6.22501Z" fill="#D80905"/>
</svg>
