<svg width="12" height="12" viewBox="0 0 12 12" fill="none" xmlns="http://www.w3.org/2000/svg">
<path d="M1.28999 9.50514L1.27999 9.51514C1.14499 9.22014 1.05999 8.88514 1.02499 8.51514C1.05999 8.88014 1.15499 9.21014 1.28999 9.50514Z" fill="#171717"/>
<path d="M4.5 5.19006C5.15722 5.19006 5.69 4.65728 5.69 4.00006C5.69 3.34284 5.15722 2.81006 4.5 2.81006C3.84278 2.81006 3.31 3.34284 3.31 4.00006C3.31 4.65728 3.84278 5.19006 4.5 5.19006Z" fill="#171717"/>
<path d="M8.095 1H3.905C2.085 1 1 2.085 1 3.905V8.095C1 8.64 1.095 9.115 1.28 9.515C1.71 10.465 2.63 11 3.905 11H8.095C9.915 11 11 9.915 11 8.095V6.95V3.905C11 2.085 9.915 1 8.095 1ZM10.185 6.25C9.795 5.915 9.165 5.915 8.775 6.25L6.695 8.035C6.305 8.37 5.675 8.37 5.285 8.035L5.115 7.895C4.76 7.585 4.195 7.555 3.795 7.825L1.925 9.08C1.815 8.8 1.75 8.475 1.75 8.095V3.905C1.75 2.495 2.495 1.75 3.905 1.75H8.095C9.505 1.75 10.25 2.495 10.25 3.905V6.305L10.185 6.25Z" fill="#171717"/>
</svg>
