<svg width="20" height="20" viewBox="0 0 20 20" fill="none" xmlns="http://www.w3.org/2000/svg">
<path d="M10.0584 13.4331C9.71669 13.4331 9.43335 13.1498 9.43335 12.8081V8.24147H2.38335C1.98335 8.2498 1.66669 8.56647 1.66669 8.96647C1.66669 13.8748 5.09169 17.2998 10 17.2998C14.9084 17.2998 18.3334 13.8748 18.3334 8.96647C18.3334 8.5748 18.0167 8.2498 17.6167 8.2498L10.675 8.2498V12.8081C10.6834 13.1581 10.4 13.4331 10.0584 13.4331Z" fill="#D80905"/>
<path d="M9.61668 2.88333L7.24167 5.25C7.00001 5.49167 7.00001 5.89167 7.24167 6.13333C7.48334 6.375 7.88334 6.375 8.12501 6.13333L9.42501 4.83333V8.25H10.675V4.84167L11.975 6.14167C12.2167 6.38333 12.6167 6.38333 12.8583 6.14167C12.9833 6.01667 13.0417 5.85833 13.0417 5.7C13.0417 5.54167 12.9833 5.38333 12.8583 5.25833L10.4833 2.89167C10.25 2.64167 9.85834 2.64167 9.61668 2.88333Z" fill="#D80905"/>
</svg>
