<svg width="12" height="12" viewBox="0 0 12 12" fill="none" xmlns="http://www.w3.org/2000/svg">
<path d="M7.36501 1H4.63501V3.18H7.36501V1Z" fill="#171717"/>
<path d="M8.11499 1V3.18H10.935C10.68 1.805 9.66499 1.005 8.11499 1Z" fill="#171717"/>
<path d="M1 3.93018V8.09518C1 9.91518 2.085 11.0002 3.905 11.0002H8.095C9.915 11.0002 11 9.91518 11 8.09518V3.93018H1ZM7.22 8.09018L6.18 8.69018C5.96 8.81518 5.745 8.88018 5.545 8.88018C5.395 8.88018 5.26 8.84518 5.135 8.77518C4.845 8.61018 4.685 8.27018 4.685 7.83018V6.63018C4.685 6.19018 4.845 5.85018 5.135 5.68518C5.425 5.51518 5.795 5.54518 6.18 5.77018L7.22 6.37018C7.605 6.59018 7.815 6.90018 7.815 7.23518C7.815 7.57018 7.6 7.86518 7.22 8.09018Z" fill="#171717"/>
<path d="M3.885 1C2.335 1.005 1.32 1.805 1.065 3.18H3.885V1Z" fill="#171717"/>
</svg>
