<svg width="14" height="14" viewBox="0 0 14 14" fill="none" xmlns="http://www.w3.org/2000/svg">
<path opacity="0.4" d="M9.08833 6.99999C9.08833 8.15499 8.155 9.08832 7 9.08832C5.845 9.08832 4.91167 8.15499 4.91167 6.99999C4.91167 5.84498 5.845 4.91165 7 4.91165C8.155 4.91165 9.08833 5.84498 9.08833 6.99999Z" stroke="#171717" stroke-width="1.2" stroke-linecap="round" stroke-linejoin="round"/>
<path d="M7 11.8242C9.05917 11.8242 10.9783 10.6108 12.3142 8.51085C12.8392 7.68835 12.8392 6.30585 12.3142 5.48335C10.9783 3.38335 9.05917 2.17001 7 2.17001C4.94083 2.17001 3.02167 3.38335 1.68583 5.48335C1.16083 6.30585 1.16083 7.68835 1.68583 8.51085C3.02167 10.6108 4.94083 11.8242 7 11.8242Z" stroke="#171717" stroke-width="1.2" stroke-linecap="round" stroke-linejoin="round"/>
</svg>
