<svg width="16" height="16" viewBox="0 0 16 16" fill="none" xmlns="http://www.w3.org/2000/svg">
<path d="M12.7998 9.85328C12.2265 10.3799 11.4665 10.6733 10.6865 10.6666H4.24649C1.53315 10.4733 1.52649 6.53328 4.24649 6.33994H4.27315C2.41315 1.16661 10.2732 -0.89339 11.1732 4.53328C13.6865 4.85328 14.7065 8.19328 12.7998 9.85328Z" fill="#312F2F"/>
<path d="M12.5 14C12.5 14.2733 12.2733 14.5 12 14.5H9.33333C9.3 14.5 9.27333 14.5 9.24 14.4866C9.04667 14.98 8.56 15.3333 8 15.3333C7.44 15.3333 6.95333 14.98 6.76 14.4866C6.72667 14.5 6.7 14.5 6.66667 14.5H4C3.72667 14.5 3.5 14.2733 3.5 14C3.5 13.7266 3.72667 13.5 4 13.5H6.66667C6.7 13.5 6.72667 13.5 6.76 13.5133C6.89333 13.1666 7.16667 12.8933 7.51333 12.76C7.5 12.7266 7.5 12.7 7.5 12.6666V10.6666H8.5V12.6666C8.5 12.7 8.5 12.7266 8.48667 12.76C8.83333 12.8933 9.10667 13.1666 9.24 13.5133C9.27333 13.5 9.3 13.5 9.33333 13.5H12C12.2733 13.5 12.5 13.7266 12.5 14Z" fill="#312F2F"/>
</svg>
