<svg width="16" height="16" viewBox="0 0 16 16" fill="none" xmlns="http://www.w3.org/2000/svg">
<path d="M7.99967 12.6667C9.47243 12.6667 10.6663 11.4728 10.6663 10C10.6663 8.52728 9.47243 7.33337 7.99967 7.33337C6.52692 7.33337 5.33301 8.52728 5.33301 10C5.33301 11.4728 6.52692 12.6667 7.99967 12.6667Z" stroke="#312F2F" stroke-width="1.2" stroke-miterlimit="10" stroke-linecap="round" stroke-linejoin="round"/>
<path d="M6.95996 10L7.39329 10.4333C7.51996 10.56 7.72663 10.5667 7.85329 10.44L9.03996 9.34668" stroke="#312F2F" stroke-width="1.2" stroke-linecap="round" stroke-linejoin="round"/>
<path d="M5.99988 14.6667H9.99988C12.6799 14.6667 13.1599 13.5934 13.2999 12.2867L13.7999 8.28671C13.9799 6.66004 13.5132 5.33337 10.6666 5.33337H5.33322C2.48655 5.33337 2.01988 6.66004 2.19988 8.28671L2.69988 12.2867C2.83988 13.5934 3.31988 14.6667 5.99988 14.6667Z" stroke="#312F2F" stroke-width="1.2" stroke-miterlimit="10" stroke-linecap="round" stroke-linejoin="round"/>
<path d="M5 5.11334V4.46667C5 2.96667 6.20667 1.49334 7.70667 1.35334C9.49333 1.18001 11 2.58667 11 4.34001V5.26001" stroke="#312F2F" stroke-width="1.2" stroke-miterlimit="10" stroke-linecap="round" stroke-linejoin="round"/>
</svg>
