<svg width="16" height="16" viewBox="0 0 16 16" fill="none" xmlns="http://www.w3.org/2000/svg">
<path d="M1.83333 12.4334C1.56 12.4334 1.33333 12.2067 1.33333 11.9334V8.13337C1.3 6.3267 1.97333 4.62003 3.22667 3.34003C4.48 2.0667 6.16 1.3667 7.96667 1.3667C11.66 1.3667 14.6667 4.37337 14.6667 8.0667V11.8667C14.6667 12.14 14.44 12.3667 14.1667 12.3667C13.8933 12.3667 13.6667 12.14 13.6667 11.8667V8.0667C13.6667 4.9267 11.1133 2.3667 7.96667 2.3667C6.42667 2.3667 5 2.96003 3.94 4.04003C2.87333 5.1267 2.30667 6.57337 2.33333 8.12003V11.9267C2.33333 12.2067 2.11333 12.4334 1.83333 12.4334Z" fill="#171717"/>
<path d="M3.96001 8.2998H3.87334C2.47334 8.2998 1.33334 9.43981 1.33334 10.8398V12.0931C1.33334 13.4931 2.47334 14.6331 3.87334 14.6331H3.96001C5.36001 14.6331 6.50001 13.4931 6.50001 12.0931V10.8398C6.50001 9.43981 5.36001 8.2998 3.96001 8.2998Z" fill="#171717"/>
<path d="M12.1267 8.2998H12.04C10.64 8.2998 9.5 9.43981 9.5 10.8398V12.0931C9.5 13.4931 10.64 14.6331 12.04 14.6331H12.1267C13.5267 14.6331 14.6667 13.4931 14.6667 12.0931V10.8398C14.6667 9.43981 13.5267 8.2998 12.1267 8.2998Z" fill="#171717"/>
</svg>
