<svg width="9" height="12" viewBox="0 0 9 12" fill="none" xmlns="http://www.w3.org/2000/svg">
<path d="M4.06667 0C1.82667 0 0 1.82667 0 4.06667V7.19333C0 9.43333 1.82667 11.26 4.06667 11.26C6.30667 11.26 8.13333 9.43333 8.13333 7.19333V4.06667C8.13333 1.82667 6.30667 0 4.06667 0ZM5.52 5.72667C5.47333 5.90667 5.30667 6.02667 5.12667 6.02667C5.09333 6.02667 5.05333 6.02 5.02 6.01333C4.34 5.82667 3.62 5.82667 2.94 6.01333C2.72 6.07333 2.5 5.94667 2.44 5.72667C2.38 5.51333 2.50667 5.28667 2.72667 5.22667C3.54667 5 4.41333 5 5.23333 5.22667C5.45333 5.28667 5.58 5.50667 5.52 5.72667ZM6.08667 3.88C6.02667 4.04667 5.87333 4.14667 5.70667 4.14667C5.66 4.14667 5.61333 4.14 5.56667 4.12C4.54667 3.74667 3.42667 3.74667 2.40667 4.12C2.19333 4.2 1.96 4.09333 1.88 3.88C1.80667 3.67333 1.91333 3.44 2.12667 3.36C3.32667 2.92667 4.64667 2.92667 5.84 3.36C6.05333 3.44 6.16 3.67333 6.08667 3.88Z" fill="#171717"/>
</svg>
