<svg width="16" height="16" viewBox="0 0 16 16" fill="none" xmlns="http://www.w3.org/2000/svg">
<path d="M14.0993 4.11335C13.826 3.96669 13.2527 3.81335 12.4727 4.36002L11.4927 5.05335C11.4193 2.98002 10.5193 2.16669 8.33268 2.16669H4.33268C2.05268 2.16669 1.16602 3.05335 1.16602 5.33335V10.6667C1.16602 12.2 1.99935 13.8334 4.33268 13.8334H8.33268C10.5193 13.8334 11.4193 13.02 11.4927 10.9467L12.4727 11.64C12.886 11.9334 13.246 12.0267 13.5327 12.0267C13.7793 12.0267 13.9727 11.9534 14.0993 11.8867C14.3727 11.7467 14.8327 11.3667 14.8327 10.4134V5.58669C14.8327 4.63335 14.3727 4.25335 14.0993 4.11335ZM7.33268 7.58669C6.64602 7.58669 6.07935 7.02669 6.07935 6.33335C6.07935 5.64002 6.64602 5.08002 7.33268 5.08002C8.01935 5.08002 8.58602 5.64002 8.58602 6.33335C8.58602 7.02669 8.01935 7.58669 7.33268 7.58669Z" fill="#171717"/>
</svg>
