<svg width="16" height="16" viewBox="0 0 16 16" fill="none" xmlns="http://www.w3.org/2000/svg">
<path d="M10.794 1.33337H5.20732C2.78065 1.33337 1.33398 2.78004 1.33398 5.20671V10.7867C1.33398 13.22 2.78065 14.6667 5.20732 14.6667H10.7873C13.214 14.6667 14.6607 13.22 14.6607 10.7934V5.20671C14.6673 2.78004 13.2207 1.33337 10.794 1.33337ZM10.6673 8.50004H8.50065V10.6667C8.50065 10.94 8.27398 11.1667 8.00065 11.1667C7.72732 11.1667 7.50065 10.94 7.50065 10.6667V8.50004H5.33398C5.06065 8.50004 4.83398 8.27337 4.83398 8.00004C4.83398 7.72671 5.06065 7.50004 5.33398 7.50004H7.50065V5.33337C7.50065 5.06004 7.72732 4.83337 8.00065 4.83337C8.27398 4.83337 8.50065 5.06004 8.50065 5.33337V7.50004H10.6673C10.9407 7.50004 11.1673 7.72671 11.1673 8.00004C11.1673 8.27337 10.9407 8.50004 10.6673 8.50004Z" fill="#D80905"/>
</svg>
