<svg width="65" height="65" viewBox="0 0 65 65" fill="none" xmlns="http://www.w3.org/2000/svg">
<path d="M59.5827 32.5C59.5827 17.5771 47.4223 5.41667 32.4994 5.41667C17.5764 5.41667 5.41602 17.5771 5.41602 32.5C5.41602 40.3542 8.80143 47.4229 14.1639 52.3792C14.1639 52.4063 14.1639 52.4063 14.1368 52.4333C14.4077 52.7042 14.7327 52.9208 15.0035 53.1646C15.166 53.3 15.3014 53.4354 15.4639 53.5438C15.9514 53.95 16.4931 54.3292 17.0077 54.7083C17.1973 54.8438 17.3598 54.9521 17.5493 55.0875C18.0639 55.4396 18.6056 55.7646 19.1743 56.0625C19.3639 56.1708 19.5806 56.3063 19.7702 56.4146C20.3119 56.7125 20.8806 56.9833 21.4764 57.2271C21.6931 57.3354 21.9098 57.4438 22.1264 57.525C22.7223 57.7688 23.3181 57.9854 23.9139 58.175C24.1306 58.2563 24.3473 58.3375 24.5639 58.3917C25.2139 58.5813 25.8639 58.7438 26.5139 58.9063C26.7035 58.9604 26.8931 59.0146 27.1098 59.0417C27.8681 59.2042 28.6264 59.3125 29.4118 59.3938C29.5202 59.3938 29.6285 59.4208 29.7368 59.4479C30.6577 59.5292 31.5785 59.5833 32.4994 59.5833C33.4202 59.5833 34.341 59.5292 35.2348 59.4479C35.3431 59.4479 35.4514 59.4208 35.5598 59.3938C36.3452 59.3125 37.1035 59.2042 37.8618 59.0417C38.0514 59.0146 38.241 58.9333 38.4577 58.9063C39.1077 58.7438 39.7848 58.6083 40.4077 58.3917C40.6244 58.3104 40.841 58.2292 41.0577 58.175C41.6535 57.9583 42.2764 57.7688 42.8452 57.525C43.0619 57.4438 43.2785 57.3354 43.4952 57.2271C44.0639 56.9833 44.6327 56.7125 45.2014 56.4146C45.4181 56.3063 45.6077 56.1708 45.7973 56.0625C46.3389 55.7375 46.8806 55.4396 47.4223 55.0875C47.6119 54.9792 47.7743 54.8438 47.9639 54.7083C48.5056 54.3292 49.0202 53.95 49.5077 53.5438C49.6702 53.4083 49.8056 53.2729 49.9681 53.1646C50.266 52.9208 50.5639 52.6771 50.8348 52.4333C50.8348 52.4063 50.8348 52.4063 50.8077 52.3792C56.1973 47.4229 59.5827 40.3542 59.5827 32.5ZM45.8785 45.9604C38.5389 41.0313 26.5139 41.0313 19.1202 45.9604C17.9285 46.7458 16.9535 47.6667 16.141 48.6688C12.0243 44.4979 9.47852 38.7833 9.47852 32.5C9.47852 19.7979 19.7973 9.47917 32.4994 9.47917C45.2014 9.47917 55.5202 19.7979 55.5202 32.5C55.5202 38.7833 52.9744 44.4979 48.8577 48.6688C48.0723 47.6667 47.0702 46.7458 45.8785 45.9604Z" fill="#9A9A9A"/>
<path d="M32.5 18.7688C26.8938 18.7688 22.3438 23.3188 22.3438 28.925C22.3438 34.4229 26.65 38.8917 32.3646 39.0542C32.4458 39.0542 32.5542 39.0542 32.6083 39.0542C32.6625 39.0542 32.7437 39.0542 32.7979 39.0542C32.825 39.0542 32.8521 39.0542 32.8521 39.0542C38.3229 38.8646 42.6292 34.4229 42.6562 28.925C42.6562 23.3188 38.1062 18.7688 32.5 18.7688Z" fill="#9A9A9A"/>
</svg>
