<svg width="16" height="16" viewBox="0 0 16 16" fill="none" xmlns="http://www.w3.org/2000/svg">
<path d="M4.8 14.6665H6.53333C8.66667 14.6665 10 13.3332 10 11.1998V8.49984H5.83333C5.56 8.49984 5.33333 8.27317 5.33333 7.99984C5.33333 7.7265 5.56 7.49984 5.83333 7.49984L10 7.49984L10 4.79984C10 2.6665 8.66667 1.33317 6.53333 1.33317H4.80667C2.67333 1.33317 1.34 2.6665 1.34 4.79984L1.34 11.1998C1.33333 13.3332 2.66667 14.6665 4.8 14.6665Z" fill="#D80905"/>
<path d="M12.96 8.49978L11.58 9.87978C11.48 9.97978 11.4333 10.1064 11.4333 10.2331C11.4333 10.3598 11.48 10.4931 11.58 10.5864C11.7733 10.7798 12.0933 10.7798 12.2867 10.5864L14.52 8.35311C14.7133 8.15978 14.7133 7.83978 14.52 7.64645L12.2867 5.41311C12.0933 5.21978 11.7733 5.21978 11.58 5.41311C11.3867 5.60645 11.3867 5.92645 11.58 6.11978L12.96 7.49978H10V8.49978H12.96Z" fill="#D80905"/>
</svg>
