<svg width="30" height="63" viewBox="0 0 30 63" fill="none" xmlns="http://www.w3.org/2000/svg">
<path d="M19.8439 51.166C20.2508 49.3818 20.1422 47.5637 18.8395 45.7103C18.1926 44.7908 17.4668 43.9812 16.5527 43.1713V34.0166C17.6335 33.9058 18.3234 32.8384 18.3232 31.244C18.3232 31.2411 18.3234 31.2384 18.3234 31.2356C18.3234 31.2352 18.3234 31.2349 18.3234 31.2345C18.3223 30.6544 18.3208 29.6838 18.238 28.5494L18.2376 28.5441C18.2129 27.9696 18.1877 27.4168 18.1672 26.9903C18.2689 26.959 18.3704 26.9281 18.4715 26.8941C19.6561 26.497 20.8172 25.9127 21.7946 25.0588C22.04 24.8478 22.2668 24.614 22.4833 24.3712C22.6916 24.1332 22.9102 23.8455 23.0717 23.599C23.457 23.0216 23.6661 22.3759 23.7901 21.7372C24.0216 20.4523 23.9561 19.183 23.8436 17.9436C23.7251 16.7046 23.5346 15.4869 23.3354 14.285C23.1329 13.083 22.9221 11.8985 22.7136 10.7242C22.5033 9.55095 22.2911 8.38999 22.0375 7.24987C21.7763 6.11287 21.4899 4.98537 20.9926 3.92756C20.7419 3.40121 20.4297 2.89443 20.0164 2.463C19.7832 2.22799 19.5352 2.06467 19.2874 1.92093C19.0381 1.78029 18.7881 1.65336 18.5359 1.54528C17.5297 1.10708 16.5209 0.819218 15.5358 0.581283C14.5506 0.348652 13.5865 0.179847 12.6484 0.0823681C12.1791 0.0342689 11.7161 0.00372747 11.2592 6.97395e-05C10.7983 -0.00121047 10.3596 0.014518 9.89379 0.0986458C9.45578 0.181493 9.03222 0.333471 8.65401 0.503739C8.27196 0.676201 7.91917 0.871524 7.58924 1.07654C6.27538 1.90465 5.29804 2.83664 4.56356 3.66548C3.83056 4.49725 3.35779 5.24928 3.09773 5.80562C2.96678 6.08269 2.88851 6.30984 2.83638 6.47626C2.79688 6.62239 2.7764 6.69737 2.7764 6.69737L2.77402 6.70469L2.72775 6.94683C2.71093 7.02565 2.69593 7.12295 2.68294 7.2378C2.6685 7.35265 2.64966 7.48653 2.64106 7.63558C2.59845 8.16229 2.59004 8.89658 2.63832 9.80571L4.05587 8.83934L2.6952 10.6691C2.71788 10.9654 2.74494 11.2765 2.77622 11.6009L4.25375 10.6296L2.86674 12.4854C2.89729 12.7672 2.93057 13.0596 2.9655 13.3583L4.452 12.4204L3.07304 14.2539C3.10761 14.5293 3.14272 14.8106 3.17875 15.0983L4.65007 14.2113L3.29305 16.0041C3.32744 16.275 3.3631 16.5511 3.39986 16.8313L4.84777 16.0021L3.5213 17.7423C3.55769 18.0093 3.59591 18.281 3.63505 18.5554L5.0462 17.7925L3.76856 19.4566C3.80952 19.7229 3.85287 19.9918 3.89841 20.2639L5.24427 19.5828L4.05093 21.1246C4.10233 21.3969 4.15628 21.671 4.21517 21.9481L5.44197 21.3736L4.39165 22.718C4.4531 22.9671 4.51967 23.2177 4.59301 23.4693C4.74078 23.9756 4.91489 24.4869 5.15008 24.9939C5.27005 25.247 5.40484 25.4988 5.57017 25.7428C5.61498 25.8041 5.64954 25.8624 5.7024 25.9266C5.75086 25.9857 5.80646 26.0601 5.85036 26.1056L5.91912 26.1803L5.9535 26.2176L6.0091 26.2715C6.07092 26.3299 6.13474 26.3809 6.19967 26.4292C6.72309 26.8006 7.28053 26.9734 7.8376 27.1285C8.0492 27.1836 8.26226 27.2315 8.47587 27.2761C8.54775 27.5737 8.67321 28.0905 8.81513 28.6659C8.46984 29.1123 8.25879 29.691 8.25677 30.3241C8.25403 30.9988 8.48484 31.6358 8.90584 32.1179C9.2643 32.5284 9.72444 32.7845 10.2246 32.8633C10.3122 32.9937 10.409 33.1186 10.5169 33.2362C10.4322 33.8337 10.1092 34.4712 9.76687 35.1426C9.12457 36.4034 8.32536 37.9721 9.38994 39.5116C10.1319 40.5837 11.392 41.3183 12.6104 42.0294C12.6243 42.0376 12.6376 42.0453 12.6515 42.0535V50.8313V54.0887L11.8909 50.9191C5.12265 51.3557 0 53.3941 0 55.8443V57.6099C0 60.3784 6.53764 62.6226 14.6022 62.6226C22.6668 62.6226 29.2046 60.3784 29.2046 57.6099V55.8443C29.2048 53.7107 25.3183 51.8892 19.8439 51.166ZM18.8335 46.3819C19.2896 47.1092 19.5504 47.9086 19.668 48.7552C19.5487 48.4308 19.4533 48.1003 19.3243 47.7793C19.1493 47.3443 18.9286 46.9331 18.6956 46.5288C18.3108 45.8594 17.8011 45.2648 17.4289 44.5898C17.9284 45.161 18.4291 45.7365 18.8335 46.3819ZM17.7201 46.4968C18.7755 47.9983 18.856 49.474 18.4783 51.0115C17.8521 50.9526 17.2094 50.9076 16.5527 50.8776V45.067C16.9816 45.5201 17.3614 45.9872 17.7201 46.4968ZM17.4929 31.5606C17.4108 31.9975 17.2767 32.3821 17.0856 32.783C17.1996 32.3937 17.2648 32.0301 17.2881 31.6259C17.2948 31.1497 17.2367 30.6659 17.1419 30.2001C17.0061 29.5307 16.8532 28.8656 16.6955 28.2013L14.3465 28.2321C14.2606 29.022 14.1743 29.8129 14.0448 30.597C13.9531 31.1553 13.8052 31.6965 13.5766 32.2133C13.4112 32.6352 13.1066 32.9983 12.8339 33.3529C13.0263 33.0049 13.2249 32.6574 13.348 32.2764C13.5197 31.7444 13.5636 31.2009 13.5949 30.6462C13.6143 29.8453 13.5769 29.043 13.5405 28.2425L13.5365 28.2427C13.5062 27.5896 13.4709 26.9574 13.45 26.6009H17.3656C17.3792 26.8818 17.3991 27.2993 17.4207 27.7745C17.4775 28.5342 17.5324 29.2939 17.5604 30.0545C17.5789 30.5498 17.5851 31.0723 17.4929 31.5606ZM15.3264 55.4143C15.3197 55.6641 14.934 55.6575 14.9349 55.4081C14.9513 52.3744 14.9678 49.3414 14.9839 46.3082C15.01 41.3681 15.0333 36.429 15.0333 31.4904C15.0333 30.633 15.0333 29.776 15.0333 28.9183C15.3109 31.0964 15.4009 33.3011 15.4237 35.4941C15.4495 38.0284 15.4519 40.5621 15.4658 43.0962C15.4782 45.5922 15.4572 48.0919 15.4208 50.5876C15.4051 51.6862 15.3818 52.7853 15.3626 53.8845C15.3555 54.3311 15.3427 54.7782 15.3312 55.2246C15.3297 55.2854 15.3354 55.354 15.3264 55.4143ZM22.9949 17.1797C22.5962 17.172 22.198 17.1715 21.7993 17.1951C21.2876 17.2302 20.7807 17.2896 20.2713 17.3531C20.2728 16.7918 20.256 16.2298 20.223 15.6676C20.6435 15.7574 21.0621 15.8499 21.4782 15.9611C21.9606 16.0915 22.4296 16.2605 22.8987 16.4304C22.9325 16.68 22.9652 16.9297 22.9949 17.1797ZM22.763 15.4893C22.3531 15.4721 21.9429 15.4611 21.5323 15.4767C21.0921 15.496 20.6545 15.5323 20.2165 15.5716C20.183 15.0286 20.1382 14.4856 20.0829 13.9435C20.9537 14.1732 21.8034 14.4368 22.6487 14.7623C22.6878 15.0043 22.7258 15.2466 22.763 15.4893ZM22.4901 13.8062C21.6806 13.7679 20.8783 13.7729 20.0689 13.8111C20.0131 13.2756 19.9509 12.7407 19.884 12.2074C20.7256 12.4625 21.5499 12.7471 22.3676 13.0832C22.4089 13.3237 22.4493 13.5648 22.4901 13.8062ZM22.0682 11.3974C22.0698 11.3917 22.0713 11.386 22.0729 11.3804C22.1155 11.6245 22.1582 11.8692 22.2008 12.1148C21.4211 12.0614 20.6453 12.0452 19.8644 12.0561C19.7973 11.525 19.7278 10.995 19.6596 10.4674C20.4751 10.747 21.275 11.0504 22.0682 11.3974ZM21.7699 9.67988C21.8151 9.92642 21.8599 10.1737 21.9041 10.422C21.1488 10.3546 20.3959 10.3174 19.6376 10.3033C19.5679 9.77425 19.4909 9.24516 19.4024 8.7179C20.1993 9.02314 20.9838 9.34721 21.7607 9.70878C21.764 9.69909 21.767 9.68958 21.7699 9.67988ZM21.5899 8.72668C20.8522 8.64566 20.1153 8.58951 19.3737 8.55093C19.2795 8.00684 19.1724 7.46513 19.0478 6.92799C19.858 7.27035 20.6578 7.62772 21.4476 8.01708C21.4961 8.25227 21.5437 8.48893 21.5899 8.72668ZM21.0455 6.27948C21.1104 6.52491 21.172 6.77309 21.2307 7.02346C20.4941 6.92726 19.7569 6.85246 19.0156 6.79064C18.8761 6.20468 18.7155 5.62401 18.5271 5.05194C19.3757 5.44497 20.215 5.84823 21.0455 6.27948ZM8.26446 2.22232C8.56348 2.11223 8.89286 2.00835 9.21016 2.10455C9.77565 2.27701 9.99347 3.02044 10.0169 3.54679C9.71731 3.20607 9.58965 2.59175 9.16682 2.38034C8.93126 2.26073 8.61944 2.31962 8.37144 2.36351C8.14832 2.4032 7.92593 2.44892 7.7019 2.48202C7.7019 2.42057 8.21105 2.24208 8.26446 2.22232ZM8.64285 5.56C9.36104 5.04006 10.1454 4.67611 10.9893 4.42483C10.9891 4.42446 10.9891 4.42391 10.9889 4.42354C12.8754 4.25401 14.7569 4.6068 16.6461 4.58064C16.7211 5.17265 16.7925 5.76502 16.8619 6.35775C16.7796 6.30728 16.4437 6.15895 16.4086 6.14469C16.1796 6.05453 15.9442 5.97826 15.7092 5.90364C15.1741 5.73429 14.628 5.60444 14.0777 5.4991C13.1386 5.32371 12.1499 5.2191 11.1981 5.34529C11.1264 5.3548 11.056 5.36834 10.9853 5.3815C10.2362 5.47898 9.50607 5.67723 8.82702 6.02325C8.0267 6.40475 7.28254 6.8585 6.54788 7.35357C7.20884 6.7056 7.89155 6.10336 8.64285 5.56ZM10.5789 16.6422C11.2173 16.322 11.854 16.0551 12.5369 15.8594C12.5361 15.8545 12.5352 15.8499 12.5345 15.845C13.5063 15.6733 14.5 15.6005 15.4823 15.5213C15.989 15.4805 16.4964 15.4461 17.0031 15.409C17.2314 15.3927 17.4593 15.3783 17.6871 15.3596C17.704 15.3583 17.9309 15.3303 18.0396 15.3078C18.0428 15.3283 18.0458 15.3488 18.0491 15.3691C18.139 15.9355 18.233 16.5028 18.315 17.0714C16.511 16.4566 14.483 16.4441 12.6243 16.7856C12.6139 16.7874 12.6038 16.7901 12.5934 16.7922C12.5456 16.7967 12.4979 16.8011 12.4502 16.8055C12.1257 16.835 11.7993 16.9017 11.484 16.9816C10.2217 17.3031 9.06111 17.8423 7.89704 18.4136C8.75496 17.7726 9.61562 17.1217 10.5789 16.6422C10.7299 16.5657 10.43 16.7161 10.5789 16.6422ZM17.7526 15.1716C17.5293 15.1036 17.3036 15.0333 17.0743 14.9902C16.577 14.8821 16.0777 14.7978 15.5711 14.7528C14.6146 14.6681 13.6384 14.6837 12.6887 14.8285C12.5511 14.8495 12.4147 14.8759 12.279 14.9046C12.2368 14.906 12.198 14.9057 12.1769 14.9079C11.8613 14.9434 11.5506 15.0052 11.2424 15.0827C9.98103 15.3856 8.81696 15.9781 7.67209 16.5707C8.51227 15.9086 9.36123 15.2484 10.3159 14.7557C10.2802 14.7742 10.2469 14.7912 10.317 14.7552C10.3437 14.7413 10.3559 14.735 10.3594 14.7332C10.3545 14.7358 10.3364 14.7449 10.3183 14.7544C10.9373 14.4346 11.5542 14.1705 12.2163 13.9733C12.2148 13.9645 12.2133 13.9558 12.2119 13.9468C12.7732 13.8449 13.3546 13.8133 13.9169 13.7689C14.8687 13.6937 15.823 13.6535 16.7764 13.6054C17.026 13.5927 17.2767 13.5825 17.5258 13.5627C17.5549 13.5606 17.6941 13.5472 17.7632 13.5221C17.8497 14.0966 17.9393 14.6705 18.0299 15.2448C17.9408 15.2091 17.7938 15.1839 17.7526 15.1716ZM17.7489 13.4539C17.2936 13.2844 16.8181 13.1653 16.3427 13.0675C15.2004 12.8319 13.995 12.7634 12.8341 12.8817C12.5672 12.9087 12.3086 12.9492 12.0546 13.0011C12.0539 12.9965 12.0531 12.992 12.0522 12.9874C12.0286 12.9921 12.0001 12.9958 11.9602 13.0007C11.6126 13.0428 11.2731 13.1101 10.9351 13.1992C9.69902 13.5062 8.55579 14.1211 7.4464 14.7274C8.26574 14.0492 9.10098 13.3813 10.0412 12.8755C10.0132 12.8905 9.99602 12.8994 10.0545 12.868C10.1213 12.8325 10.0999 12.8442 10.069 12.8606C10.67 12.5411 11.2687 12.2798 11.9127 12.0825C11.9112 12.0724 11.9099 12.0622 11.9085 12.0521C12.4595 11.9512 13.0341 11.9298 13.5868 11.901C14.5731 11.8493 15.5602 11.8279 16.5476 11.7988C16.8062 11.7909 17.0655 11.7849 17.3241 11.7688C17.3925 11.7644 17.4686 11.7524 17.5068 11.7319C17.5842 12.3072 17.6674 12.8819 17.7535 13.4559C17.7519 13.4552 17.751 13.4547 17.7489 13.4539ZM17.4278 11.6324C16.9598 11.4546 16.4691 11.327 15.9808 11.2225C14.8553 10.9815 13.688 10.8992 12.5414 10.9894C12.2838 11.0097 12.0306 11.0477 11.7817 11.0996C11.7812 11.0949 11.7806 11.0901 11.7799 11.0854C11.7794 11.0854 11.7788 11.0859 11.7783 11.0861C11.7071 11.0916 11.6365 11.1048 11.5659 11.1144C11.2492 11.1726 10.9397 11.2304 10.6281 11.3158C9.41573 11.6273 8.29921 12.2677 7.222 12.8837C8.0267 12.1876 8.84914 11.5091 9.78168 10.9877C9.7537 11.0033 9.73578 11.0129 9.7932 10.9809C9.86142 10.9434 9.8371 10.957 9.80509 10.9747C10.4119 10.6415 11.0158 10.3732 11.6711 10.1722C11.6698 10.1611 11.6685 10.1501 11.6672 10.1389C12.2678 10.0263 12.9281 10.034 13.5296 10.0182C14.5836 9.99116 15.6381 10.0116 16.6917 9.98384C16.827 9.9822 16.9624 9.98037 17.0982 9.97488C17.1489 9.97269 17.2317 9.97872 17.2811 9.95385C17.3503 10.525 17.4221 11.0958 17.4984 11.666C17.4816 11.6556 17.4598 11.6445 17.4278 11.6324ZM16.8934 9.73274C16.3894 9.55955 15.8718 9.42275 15.3486 9.31923C14.2701 9.10599 13.1567 9.01034 12.059 9.10763C11.8905 9.12263 11.7249 9.1486 11.5603 9.17969C11.5595 9.17256 11.5588 9.16561 11.5579 9.15848C11.4728 9.18097 11.3869 9.19597 11.353 9.20127C11.0156 9.25467 10.6888 9.32746 10.3609 9.42055C9.15731 9.76255 8.05999 10.3979 6.99705 11.0402C7.78456 10.3288 8.59365 9.63947 9.51467 9.10361C9.49089 9.11714 9.47974 9.12336 9.53113 9.09355C9.59386 9.05807 9.57813 9.06721 9.5507 9.08294C10.1698 8.73308 10.7844 8.45601 11.4602 8.25173C11.4595 8.24423 11.4586 8.23655 11.4578 8.22905C11.6437 8.20948 11.8349 8.2135 12.0155 8.18077C12.552 8.14711 13.0879 8.14108 13.625 8.14236C14.6933 8.14492 15.7617 8.19521 16.8301 8.17912C16.8758 8.17857 17.047 8.1879 17.0693 8.15278C17.1366 8.73637 17.2043 9.31978 17.2747 9.90301C17.1899 9.83845 16.9243 9.74353 16.8934 9.73274ZM17.0181 8.09261C16.8334 7.9838 16.6074 7.91723 16.4046 7.85285C15.8959 7.68624 15.3819 7.54871 14.8575 7.43934C13.8368 7.22719 12.7466 7.10813 11.7046 7.21695C11.5862 7.22921 11.4694 7.24658 11.3534 7.26706C11.3529 7.26249 11.3525 7.25792 11.3519 7.25316C11.2685 7.272 11.182 7.28627 11.1063 7.29376C10.7898 7.31608 10.4651 7.41465 10.1625 7.50408C8.94187 7.86474 7.83833 8.51673 6.77229 9.19706C7.54462 8.46918 8.34273 7.76708 9.25405 7.21677C9.23065 7.23049 9.21949 7.23689 9.26905 7.20726C9.63702 6.992 10.0022 6.77217 10.4 6.61452C10.6797 6.50424 10.9593 6.41445 11.2462 6.33087C11.2455 6.3252 11.2448 6.31935 11.2442 6.31368C11.4531 6.28716 11.6693 6.28478 11.8741 6.27381C12.4681 6.24253 13.068 6.25698 13.6622 6.28167C14.2886 6.30819 14.9159 6.33507 15.5421 6.35501C15.8157 6.36324 16.0893 6.3711 16.3629 6.37641C16.4369 6.37823 16.7758 6.42889 16.8643 6.38116C16.9327 6.96457 16.9995 7.54816 17.0668 8.13193C17.06 8.12151 17.0452 8.10871 17.0181 8.09261ZM5.12759 16.3081C4.81229 13.8446 4.53046 11.3656 4.43335 8.88213C4.40244 8.09554 4.39366 7.31187 4.41232 6.52509C4.56228 8.68334 4.82948 10.8304 5.0976 12.9766C5.40192 15.4159 5.66363 17.8655 6.02446 20.297C6.15395 21.1659 6.29971 22.034 6.54733 22.8786C5.65576 20.8244 5.40923 18.51 5.12759 16.3081ZM7.48829 18.9149C7.23462 17.7282 7.03729 16.5273 6.87324 15.3252C6.54057 12.8925 6.26258 10.4436 6.12249 7.99166C6.07165 7.10813 6.04495 6.22095 6.07402 5.33633C6.2805 7.41996 6.53965 9.49572 6.79515 11.5739C7.09801 14.0342 7.37307 16.499 7.74579 18.9504C7.88734 19.8839 8.03731 20.819 8.28933 21.7299C7.92136 20.8244 7.69202 19.8681 7.48829 18.9149ZM10.0083 26.1784C9.84295 26.2148 9.67597 26.2424 9.50863 26.2673C10.9379 25.4979 12.4037 24.1215 12.7854 22.6182C13.0901 21.4177 13.0952 20.149 12.9436 18.6885C12.6909 18.7137 12.4414 18.7492 12.1951 18.7949C12.2263 19.528 12.2629 20.2602 12.2369 20.9938C12.2203 21.4759 12.1614 21.9896 11.9992 22.4463C11.8768 22.7912 11.73 23.1063 11.5634 23.4311C11.6808 23.0953 11.7821 22.7702 11.8543 22.4205C11.948 21.9585 11.9372 21.4576 11.8887 20.9909C11.8165 20.2997 11.6886 19.6168 11.563 18.9339C10.3742 19.2348 9.24729 19.7341 8.12181 20.2564C8.82226 19.7624 9.51375 19.2635 10.2607 18.8399C11.0789 18.3761 11.9275 18.0036 12.8311 17.7516C12.8308 17.7485 12.8302 17.7454 12.8299 17.7424C12.8823 17.7327 12.9346 17.7221 12.9873 17.7132C13.9654 17.5478 14.953 17.4277 15.9398 17.3291C16.7303 17.2507 17.5317 17.2141 18.3203 17.1084C18.3781 17.5124 18.4307 17.9171 18.4671 18.3233C18.4993 17.9946 18.5189 17.6671 18.5211 17.3364C18.5379 14.9271 18.1992 12.4998 17.8852 10.1157C17.6012 7.95764 17.2563 5.76465 16.5236 3.70736C16.558 3.97602 16.6043 4.24285 16.6379 4.51133C16.6397 4.52614 16.6416 4.54096 16.6432 4.55559C16.38 4.43452 16.1097 4.32424 15.8374 4.22712C14.7544 3.83941 13.6089 3.5413 12.4593 3.44455C11.9421 3.40084 11.3477 3.3522 10.8174 3.4451C10.7433 3.07183 10.6634 2.72544 10.5752 2.41326C10.1698 0.973757 9.22241 1.32252 8.15875 1.53888C8.7246 1.20877 9.34733 0.911393 10.0339 0.779167C10.2678 0.737468 10.5291 0.715888 10.7974 0.705646C11.6296 0.888715 12.2132 1.49425 12.4328 2.33864C12.4136 1.69671 12.1746 1.14183 11.7755 0.718265C12.0387 0.73253 12.3046 0.751916 12.5749 0.780263C12.6662 0.789956 12.7594 0.80349 12.8516 0.814647C13.5976 1.07398 14.04 1.81101 14.2597 2.58261C14.22 2.02243 14.0786 1.47852 13.7695 1.00265C13.7553 0.980525 13.7392 0.960955 13.7243 0.939558C14.1219 1.00521 14.5245 1.08312 14.931 1.17256C15.5525 1.48529 15.9682 2.13984 16.1569 2.81085C16.132 2.29511 15.9852 1.78742 15.7215 1.35855C16.0975 1.45511 16.4764 1.56155 16.8543 1.68171C17.3998 2.04273 17.7444 2.74556 17.941 3.34013C17.8912 2.85987 17.7683 2.35546 17.5445 1.91818C17.78 2.0056 18.0141 2.09924 18.2457 2.20074C18.2691 2.2108 18.2914 2.22269 18.3146 2.23311C18.9077 2.65924 19.309 3.3628 19.5292 4.04881C19.4774 3.58099 19.3532 3.11005 19.1493 2.68301C19.2793 2.77098 19.3995 2.8648 19.4955 2.96228C19.8359 3.31854 20.112 3.76076 20.3372 4.2392C20.4957 4.57735 20.6323 4.93234 20.7549 5.29811C20.0091 5.18655 19.2621 5.09181 18.5114 5.00457C18.3856 4.62637 18.2484 4.25163 18.0966 3.88165C18.1476 4.1472 18.1996 4.41349 18.2488 4.67977C18.6857 7.0626 18.932 9.46719 19.2543 11.8668C19.4189 13.0922 19.6076 14.3139 19.8008 15.5357C19.9569 16.5195 20.1287 17.504 20.2194 18.4967C20.2479 18.2033 20.2688 17.9107 20.2726 17.615C20.2737 17.5391 20.2711 17.4628 20.2713 17.3867C20.7701 17.4743 21.2659 17.5636 21.7578 17.6817C22.2096 17.7913 22.6501 17.9339 23.09 18.0821C23.1933 19.264 23.2398 20.4634 23.0313 21.5916C22.9202 22.1613 22.7319 22.7107 22.429 23.1603C22.2514 23.4282 22.0936 23.6295 21.8979 23.8561C21.7035 24.0719 21.501 24.2806 21.2796 24.4703C20.7488 24.9366 20.1473 25.3194 19.5087 25.6334C19.6947 25.4919 19.8777 25.3456 20.0553 25.1903C20.783 24.5551 21.3928 23.7521 21.762 22.8572C22.181 21.8448 22.2496 20.773 22.0453 19.7033C22.0813 20.6981 21.9131 21.6458 21.4581 22.5377C21.0586 23.3188 20.4304 23.9997 19.7318 24.5257C19.2045 24.9224 18.6409 25.2375 18.0558 25.5144C18.2682 25.3432 18.4752 25.1627 18.6769 24.9712C20.0793 23.6405 20.8066 21.6087 20.4815 19.7035C20.4904 20.1218 20.4751 20.5408 20.3854 20.9517C19.9547 22.92 18.5677 24.5396 16.767 25.4123C16.5856 25.5003 16.4022 25.5811 16.218 25.6592C16.4139 25.4994 16.6044 25.3304 16.7903 25.1513C18.2347 23.7614 19.0182 21.5666 18.6978 19.5865C18.7034 20.019 18.6771 20.4506 18.5802 20.8742C18.3613 21.8378 17.954 22.8216 17.3192 23.5877C17.0381 23.9278 16.7509 24.2856 16.4033 24.5606C16.0593 24.834 15.7204 25.0762 15.3478 25.3088C15.0472 25.4966 14.7238 25.653 14.3899 25.7893C14.5239 25.6755 14.6549 25.5586 14.7796 25.4359C15.6244 24.606 16.2383 23.552 16.6006 22.4282C16.9042 21.4881 17.0765 20.4523 16.9146 19.4683C16.966 20.4334 16.6974 21.4142 16.3074 22.2905C15.8559 23.3068 15.1783 24.2378 14.3001 24.9258C13.8317 25.2929 13.331 25.5711 12.8015 25.7829C12.9262 25.6684 13.0477 25.5502 13.1633 25.4253C13.972 24.5509 14.5311 23.492 14.8696 22.3536C15.1518 21.3998 15.3297 20.3392 15.1307 19.3518C15.1565 20.1139 14.9579 20.8692 14.7074 21.5827C14.3974 22.4655 13.9566 23.2894 13.3827 24.0297C12.8229 24.7514 12.1021 25.3699 11.2684 25.7527C10.8631 25.9398 10.4434 26.0817 10.0083 26.1784ZM10.317 32.2428C10.7327 32.1124 11.1166 31.9339 11.3984 31.5866C11.6789 31.2693 11.8408 30.8373 11.856 30.4156C11.8712 29.9554 11.7347 29.4934 11.4458 29.1321C11.1497 28.7615 10.772 28.5655 10.3303 28.4225C11.5085 28.1735 12.4145 29.24 12.4456 30.3402C12.4063 30.909 12.2289 31.4388 11.794 31.8304C11.3909 32.1928 10.8496 32.3598 10.317 32.2428ZM10.0333 39.0026C9.37092 37.9817 9.85776 36.7442 10.4874 35.842C10.0765 36.6975 9.59934 37.7893 10.0983 38.7137C10.5324 39.6186 11.4441 40.2245 12.2618 40.7521C11.386 40.3818 10.5549 39.8084 10.0333 39.0026ZM10.5152 38.734C9.94408 37.9088 10.3223 37.0677 10.9864 35.765C11.2762 35.1964 11.5696 34.6139 11.7455 34.0045C11.7954 34.0199 11.8488 34.0323 11.9013 34.0458C11.9216 34.0512 11.9414 34.057 11.9622 34.0619C12.0389 34.0802 12.1193 34.096 12.2016 34.11C12.2265 34.1142 12.2499 34.1197 12.2752 34.1234C12.3816 34.1399 12.4921 34.1532 12.6082 34.1623C12.6223 34.1634 12.6375 34.1644 12.6517 34.1653V40.4655C11.7852 39.9447 10.9712 39.392 10.5152 38.734ZM21.8231 60.1298C19.3999 60.6456 16.8908 60.8561 14.4155 60.8111C12.6398 60.7791 10.8569 60.6547 9.10774 60.3418C7.72841 60.0936 6.39664 59.7516 5.0687 59.3058C9.54887 60.2529 14.1236 60.4323 18.6813 60.0496C20.3545 59.9095 22.0471 59.6624 23.675 59.2485C25.1602 58.871 26.5902 58.3997 27.9103 57.6102C26.1475 58.9738 23.9814 59.6686 21.8231 60.1298Z" fill="url(#paint0_linear_15100_16493)"/>
<defs>
<linearGradient id="paint0_linear_15100_16493" x1="14.6023" y1="-1.2366e-07" x2="-3.19239" y2="140.101" gradientUnits="userSpaceOnUse">
<stop stop-color="#D80905"/>
<stop offset="0.726594" stop-color="#F37127"/>
<stop offset="1" stop-color="#370103"/>
</linearGradient>
</defs>
</svg>
