<svg width="47" height="61" viewBox="0 0 47 61" fill="none" xmlns="http://www.w3.org/2000/svg">
<path d="M23.1049 0C23.1049 0 16.2747 11.3286 0 12.0079C0 12.0079 0 18.2844 0 22.3775C0 51.5787 23.1049 54.9892 23.1049 54.9892C23.1049 54.9892 46.2097 51.5787 46.2097 22.3775C46.2097 18.2844 46.2097 12.0079 46.2097 12.0079C29.9351 11.3286 23.1049 0 23.1049 0Z" fill="url(#paint0_linear_15100_19536)"/>
<path d="M29.0659 26.2778H17.1437C15.6928 26.2778 14.5164 27.4539 14.5164 28.9048V39.5886C14.5164 41.0395 15.6928 42.2156 17.1437 42.2156H29.0659C30.5168 42.2156 31.6932 41.0395 31.6932 39.5886V28.9048C31.6932 27.4539 30.5168 26.2778 29.0659 26.2778ZM21.9793 38.5123L18.8688 35.4021L20.0286 34.242L21.7631 35.9765L26.0015 29.9811L27.3408 30.928L21.9793 38.5123Z" fill="white"/>
<path d="M19.3599 20.8781C19.3599 18.8132 21.0399 17.1335 23.1049 17.1335C25.1698 17.1335 26.8499 18.8132 26.8499 20.8781V24.9028H28.5015V20.8781C28.5015 17.8978 26.0852 15.4819 23.1049 15.4819C20.1245 15.4819 17.7083 17.8978 17.7083 20.8781V24.9028H19.3599V20.8781Z" fill="white"/>
<path d="M23.1048 60.8154C28.2026 60.8154 32.3352 60.09 32.3352 59.1952C32.3352 58.3003 28.2026 57.575 23.1048 57.575C18.0071 57.575 13.8745 58.3003 13.8745 59.1952C13.8745 60.09 18.0071 60.8154 23.1048 60.8154Z" fill="#DDDDDD"/>
<defs>
<linearGradient id="paint0_linear_15100_19536" x1="1.83677" y1="11.3254" x2="44.2972" y2="41.9526" gradientUnits="userSpaceOnUse">
<stop stop-color="#F37127"/>
<stop offset="1" stop-color="#D80905"/>
</linearGradient>
</defs>
</svg>
