<svg width="24" height="24" viewBox="0 0 24 24" fill="none" xmlns="http://www.w3.org/2000/svg">
<rect width="24" height="24" rx="12" fill="#312F2F"/>
<path d="M9.1868 9.508C9.2428 8.772 9.5268 8.196 10.0388 7.78C10.5508 7.364 11.2148 7.156 12.0308 7.156C12.5748 7.156 13.0428 7.256 13.4348 7.456C13.8348 7.648 14.1348 7.912 14.3348 8.248C14.5428 8.584 14.6468 8.964 14.6468 9.388C14.6468 9.884 14.5028 10.312 14.2148 10.672C13.9348 11.032 13.5668 11.264 13.1108 11.368V11.428C13.6308 11.556 14.0428 11.808 14.3468 12.184C14.6508 12.56 14.8028 13.052 14.8028 13.66C14.8028 14.116 14.6988 14.528 14.4908 14.896C14.2828 15.256 13.9708 15.54 13.5548 15.748C13.1388 15.956 12.6388 16.06 12.0548 16.06C11.2068 16.06 10.5108 15.84 9.9668 15.4C9.4228 14.952 9.1188 14.32 9.0548 13.504H10.1108C10.1668 13.984 10.3628 14.376 10.6988 14.68C11.0348 14.984 11.4828 15.136 12.0428 15.136C12.6028 15.136 13.0268 14.992 13.3148 14.704C13.6108 14.408 13.7588 14.028 13.7588 13.564C13.7588 12.964 13.5588 12.532 13.1588 12.268C12.7588 12.004 12.1548 11.872 11.3468 11.872H11.0708V10.96H11.3588C12.0948 10.952 12.6508 10.832 13.0268 10.6C13.4028 10.36 13.5908 9.992 13.5908 9.496C13.5908 9.072 13.4508 8.732 13.1708 8.476C12.8988 8.22 12.5068 8.092 11.9948 8.092C11.4988 8.092 11.0988 8.22 10.7948 8.476C10.4908 8.732 10.3108 9.076 10.2548 9.508H9.1868Z" fill="white"/>
</svg>
