<svg width="24" height="24" viewBox="0 0 24 24" fill="none" xmlns="http://www.w3.org/2000/svg">
<rect width="24" height="24" rx="12" fill="#312F2F"/>
<path d="M9.16083 15.124C10.1768 14.308 10.9728 13.64 11.5488 13.12C12.1248 12.592 12.6088 12.044 13.0008 11.476C13.4008 10.9 13.6008 10.336 13.6008 9.784C13.6008 9.264 13.4728 8.856 13.2168 8.56C12.9688 8.256 12.5648 8.104 12.0048 8.104C11.4608 8.104 11.0368 8.276 10.7328 8.62C10.4368 8.956 10.2768 9.408 10.2528 9.976H9.19683C9.22883 9.08 9.50083 8.388 10.0128 7.9C10.5248 7.412 11.1848 7.168 11.9928 7.168C12.8168 7.168 13.4688 7.396 13.9488 7.852C14.4368 8.308 14.6808 8.936 14.6808 9.736C14.6808 10.4 14.4808 11.048 14.0808 11.68C13.6888 12.304 13.2408 12.856 12.7368 13.336C12.2328 13.808 11.5888 14.36 10.8048 14.992H14.9328V15.904H9.16083V15.124Z" fill="white"/>
</svg>
