<svg width="16" height="16" viewBox="0 0 16 16" fill="none" xmlns="http://www.w3.org/2000/svg">
<path d="M12.7998 9.85334C12.2265 10.38 11.4665 10.6733 10.6865 10.6667H4.24649C1.53315 10.4733 1.52649 6.53334 4.24649 6.34H4.27315C2.41315 1.16667 10.2732 -0.893329 11.1732 4.53334C13.6865 4.85334 14.7065 8.19334 12.7998 9.85334Z" fill="#D80905"/>
<path d="M12.5 14C12.5 14.2734 12.2733 14.5 12 14.5H9.33333C9.3 14.5 9.27333 14.5 9.24 14.4867C9.04667 14.98 8.56 15.3334 8 15.3334C7.44 15.3334 6.95333 14.98 6.76 14.4867C6.72667 14.5 6.7 14.5 6.66667 14.5H4C3.72667 14.5 3.5 14.2734 3.5 14C3.5 13.7267 3.72667 13.5 4 13.5H6.66667C6.7 13.5 6.72667 13.5 6.76 13.5134C6.89333 13.1667 7.16667 12.8934 7.51333 12.76C7.5 12.7267 7.5 12.7 7.5 12.6667V10.6667H8.5V12.6667C8.5 12.7 8.5 12.7267 8.48667 12.76C8.83333 12.8934 9.10667 13.1667 9.24 13.5134C9.27333 13.5 9.3 13.5 9.33333 13.5H12C12.2733 13.5 12.5 13.7267 12.5 14Z" fill="#D80905"/>
</svg>
