<svg width="12" height="12" viewBox="0 0 12 12" fill="none" xmlns="http://www.w3.org/2000/svg">
<path d="M10.8793 7.96L7.67926 2.2C7.24926 1.425 6.65426 1 5.99926 1C5.34426 1 4.74926 1.425 4.31926 2.2L1.11926 7.96C0.714256 8.695 0.669256 9.4 0.994256 9.955C1.31926 10.51 1.95926 10.815 2.79926 10.815H9.19926C10.0393 10.815 10.6793 10.51 11.0043 9.955C11.3293 9.4 11.2843 8.69 10.8793 7.96ZM5.62426 4.5C5.62426 4.295 5.79426 4.125 5.99926 4.125C6.20426 4.125 6.37426 4.295 6.37426 4.5V7C6.37426 7.205 6.20426 7.375 5.99926 7.375C5.79426 7.375 5.62426 7.205 5.62426 7V4.5ZM6.35426 8.855C6.32926 8.875 6.30426 8.895 6.27926 8.915C6.24926 8.935 6.21926 8.95 6.18926 8.96C6.15926 8.975 6.12926 8.985 6.09426 8.99C6.06426 8.995 6.02926 9 5.99926 9C5.96926 9 5.93426 8.995 5.89926 8.99C5.86926 8.985 5.83926 8.975 5.80926 8.96C5.77926 8.95 5.74926 8.935 5.71926 8.915C5.69426 8.895 5.66926 8.875 5.64426 8.855C5.55426 8.76 5.49926 8.63 5.49926 8.5C5.49926 8.37 5.55426 8.24 5.64426 8.145C5.66926 8.125 5.69426 8.105 5.71926 8.085C5.74926 8.065 5.77926 8.05 5.80926 8.04C5.83926 8.025 5.86926 8.015 5.89926 8.01C5.96426 7.995 6.03426 7.995 6.09426 8.01C6.12926 8.015 6.15926 8.025 6.18926 8.04C6.21926 8.05 6.24926 8.065 6.27926 8.085C6.30426 8.105 6.32926 8.125 6.35426 8.145C6.44426 8.24 6.49926 8.37 6.49926 8.5C6.49926 8.63 6.44426 8.76 6.35426 8.855Z" fill="#FFA800"/>
</svg>
