<svg width="20" height="20" viewBox="0 0 20 20" fill="none" xmlns="http://www.w3.org/2000/svg">
<path d="M9.99996 1.66663C5.39996 1.66663 1.66663 5.39996 1.66663 9.99996C1.66663 14.6 5.39996 18.3333 9.99996 18.3333C14.6 18.3333 18.3333 14.6 18.3333 9.99996C18.3333 5.39996 14.6 1.66663 9.99996 1.66663ZM10.275 14.1666C10.125 14.2166 9.86663 14.2166 9.71663 14.1666C8.41663 13.725 5.49996 11.8666 5.49996 8.71663C5.49996 7.32496 6.61663 6.19996 7.99996 6.19996C8.81663 6.19996 9.54163 6.59163 9.99996 7.20829C10.45 6.59996 11.1833 6.19996 12 6.19996C13.3833 6.19996 14.5 7.32496 14.5 8.71663C14.5 11.8666 11.5833 13.725 10.275 14.1666Z" fill="#D80905"/>
</svg>
