<svg width="14" height="14" viewBox="0 0 14 14" fill="none" xmlns="http://www.w3.org/2000/svg">
<path d="M7.00002 1.16669C3.78585 1.16669 1.16669 3.78585 1.16669 7.00002C1.16669 10.2142 3.78585 12.8334 7.00002 12.8334C10.2142 12.8334 12.8334 10.2142 12.8334 7.00002C12.8334 3.78585 10.2142 1.16669 7.00002 1.16669ZM6.56252 4.66669C6.56252 4.42752 6.76085 4.22919 7.00002 4.22919C7.23919 4.22919 7.43752 4.42752 7.43752 4.66669V7.58335C7.43752 7.82252 7.23919 8.02085 7.00002 8.02085C6.76085 8.02085 6.56252 7.82252 6.56252 7.58335V4.66669ZM7.53669 9.55502C7.50752 9.63085 7.46669 9.68919 7.41419 9.74752C7.35585 9.80002 7.29169 9.84085 7.22169 9.87002C7.15169 9.89919 7.07585 9.91669 7.00002 9.91669C6.92419 9.91669 6.84835 9.89919 6.77835 9.87002C6.70835 9.84085 6.64419 9.80002 6.58585 9.74752C6.53335 9.68919 6.49252 9.63085 6.46335 9.55502C6.43419 9.48502 6.41669 9.40919 6.41669 9.33335C6.41669 9.25752 6.43419 9.18169 6.46335 9.11169C6.49252 9.04169 6.53335 8.97752 6.58585 8.91919C6.64419 8.86669 6.70835 8.82585 6.77835 8.79669C6.91835 8.73835 7.08169 8.73835 7.22169 8.79669C7.29169 8.82585 7.35585 8.86669 7.41419 8.91919C7.46669 8.97752 7.50752 9.04169 7.53669 9.11169C7.56585 9.18169 7.58335 9.25752 7.58335 9.33335C7.58335 9.40919 7.56585 9.48502 7.53669 9.55502Z" fill="#FFA800"/>
</svg>
