<svg width="20" height="20" viewBox="0 0 20 20" fill="none" xmlns="http://www.w3.org/2000/svg">
<path d="M18.3333 10.8333V14.1667C18.3333 17.0833 16.6667 18.3333 14.1667 18.3333H5.83332C3.33332 18.3333 1.66666 17.0833 1.66666 14.1667V10.8333C1.66666 8.62499 2.62499 7.37501 4.16666 6.90001C4.66666 6.74168 5.22499 6.66666 5.83332 6.66666H14.1667C14.775 6.66666 15.3333 6.74168 15.8333 6.90001C17.375 7.37501 18.3333 8.62499 18.3333 10.8333Z" stroke="white" stroke-width="1.2" stroke-miterlimit="10" stroke-linecap="round" stroke-linejoin="round"/>
<path d="M15.8333 5.83332V6.90001C15.3333 6.74168 14.775 6.66666 14.1667 6.66666H5.83332C5.22499 6.66666 4.66666 6.74168 4.16666 6.90001V5.83332C4.16666 4.91666 4.91666 4.16666 5.83332 4.16666H14.1667C15.0833 4.16666 15.8333 4.91666 15.8333 5.83332Z" stroke="white" stroke-width="1.2" stroke-miterlimit="10" stroke-linecap="round" stroke-linejoin="round"/>
<path d="M13.3333 2.925V4.16666H6.66666V2.925C6.66666 2.23333 7.23333 1.66666 7.925 1.66666H12.075C12.7666 1.66666 13.3333 2.23333 13.3333 2.925Z" stroke="white" stroke-width="1.2" stroke-miterlimit="10" stroke-linecap="round" stroke-linejoin="round"/>
<path d="M7.55835 16.2083C8.16586 16.2083 8.65836 15.7159 8.65836 15.1083C8.65836 14.5008 8.16586 14.0083 7.55835 14.0083C6.95084 14.0083 6.45834 14.5008 6.45834 15.1083C6.45834 15.7159 6.95084 16.2083 7.55835 16.2083Z" stroke="white" stroke-width="1.2" stroke-linecap="round" stroke-linejoin="round"/>
<path d="M12.7083 14.375V10.0667C12.7083 9.14999 12.1333 9.01666 11.55 9.18332L9.34169 9.7833C8.94168 9.89163 8.66669 10.2083 8.66669 10.6666V11.4333V11.95V15.1083" stroke="white" stroke-width="1.2" stroke-linecap="round" stroke-linejoin="round"/>
<path d="M11.6083 15.475C12.2159 15.475 12.7083 14.9825 12.7083 14.375C12.7083 13.7675 12.2159 13.275 11.6083 13.275C11.0008 13.275 10.5083 13.7675 10.5083 14.375C10.5083 14.9825 11.0008 15.475 11.6083 15.475Z" stroke="white" stroke-width="1.2" stroke-linecap="round" stroke-linejoin="round"/>
<path d="M8.66669 11.9583L12.7083 10.8583" stroke="white" stroke-width="1.2" stroke-linecap="round" stroke-linejoin="round"/>
</svg>
