<svg width="20" height="20" viewBox="0 0 20 20" fill="none" xmlns="http://www.w3.org/2000/svg">
<path d="M18.3333 10.8334V14.1667C18.3333 17.0834 16.6666 18.3334 14.1666 18.3334H5.83329C3.33329 18.3334 1.66663 17.0834 1.66663 14.1667V10.8334C1.66663 8.62502 2.62496 7.37504 4.16663 6.90004C4.66663 6.74171 5.22496 6.66669 5.83329 6.66669H14.1666C14.775 6.66669 15.3333 6.74171 15.8333 6.90004C17.375 7.37504 18.3333 8.62502 18.3333 10.8334Z" stroke="white" stroke-width="1.2" stroke-miterlimit="10" stroke-linecap="round" stroke-linejoin="round"/>
<path d="M15.8333 5.83335V6.90004C15.3333 6.74171 14.775 6.66669 14.1666 6.66669H5.83329C5.22496 6.66669 4.66663 6.74171 4.16663 6.90004V5.83335C4.16663 4.91669 4.91663 4.16669 5.83329 4.16669H14.1666C15.0833 4.16669 15.8333 4.91669 15.8333 5.83335Z" stroke="white" stroke-width="1.2" stroke-miterlimit="10" stroke-linecap="round" stroke-linejoin="round"/>
<path d="M13.3333 2.92503V4.16669H6.66663V2.92503C6.66663 2.23336 7.2333 1.66669 7.92497 1.66669H12.075C12.7666 1.66669 13.3333 2.23336 13.3333 2.92503Z" stroke="white" stroke-width="1.2" stroke-miterlimit="10" stroke-linecap="round" stroke-linejoin="round"/>
<path d="M7.55838 16.2084C8.16589 16.2084 8.65839 15.7159 8.65839 15.1084C8.65839 14.5009 8.16589 14.0084 7.55838 14.0084C6.95087 14.0084 6.45837 14.5009 6.45837 15.1084C6.45837 15.7159 6.95087 16.2084 7.55838 16.2084Z" stroke="white" stroke-width="1.2" stroke-linecap="round" stroke-linejoin="round"/>
<path d="M12.7084 14.375V10.0667C12.7084 9.15002 12.1334 9.01669 11.55 9.18335L9.34175 9.78333C8.94175 9.89166 8.66675 10.2083 8.66675 10.6667V11.4333V11.95V15.1083" stroke="white" stroke-width="1.2" stroke-linecap="round" stroke-linejoin="round"/>
<path d="M11.6083 15.475C12.2158 15.475 12.7083 14.9825 12.7083 14.375C12.7083 13.7675 12.2158 13.275 11.6083 13.275C11.0008 13.275 10.5083 13.7675 10.5083 14.375C10.5083 14.9825 11.0008 15.475 11.6083 15.475Z" stroke="white" stroke-width="1.2" stroke-linecap="round" stroke-linejoin="round"/>
<path d="M8.66675 11.9584L12.7084 10.8584" stroke="white" stroke-width="1.2" stroke-linecap="round" stroke-linejoin="round"/>
</svg>
